<?xml version="1.0" encoding="UTF-8"?>
<svg width="113px" height="78px" viewBox="0 0 113 78" version="1.1" xmlns="http://www.w3.org/2000/svg" xmlns:xlink="http://www.w3.org/1999/xlink">
    <title>身份证背面</title>
    <g id="PC" stroke="none" stroke-width="1" fill="none" fill-rule="evenodd">
        <g id="新增工厂" transform="translate(-743.000000, -775.000000)" fill-rule="nonzero">
            <g id="身份证背面" transform="translate(743.973606, 774.819557)">
                <path d="M103.981419,0.398593349 C108.399697,0.398593349 111.981419,3.98031535 111.981419,8.39859335 L111.981419,69.3858187 C111.981419,73.8040967 108.399697,77.3858187 103.981419,77.3858187 L8,77.3858187 C3.581722,77.3858187 5.41083001e-16,73.8040967 0,69.3858187 L0,8.39859335 C-5.41083001e-16,3.98031535 3.581722,0.398593349 8,0.398593349 L103.981419,0.398593349 Z M98.7832768,60.8898964 L13.1981419,60.8898964 C12.0935724,60.8898964 11.1981419,61.7853269 11.1981419,62.8898964 L11.1981419,62.8898964 L11.1981419,63.7890834 C11.1981419,64.8936529 12.0935724,65.7890834 13.1981419,65.7890834 L13.1981419,65.7890834 L98.7832768,65.7890834 C99.8878463,65.7890834 100.783277,64.8936529 100.783277,63.7890834 L100.783277,63.7890834 L100.783277,62.8898964 C100.783277,61.7853269 99.8878463,60.8898964 98.7832768,60.8898964 L98.7832768,60.8898964 Z M29.4749344,14.6702668 C20.566943,14.6702668 13.3557118,21.7542409 13.3557118,30.4501372 C13.3557118,34.6072 14.9676341,38.4673295 17.8945454,41.43666 L17.3006794,45.1271136 C17.2158414,45.5513036 17.4279364,45.9330746 17.7672885,46.1451698 C17.9793835,46.2724268 18.1490595,46.3572648 18.3611545,46.3996837 C18.4884115,46.6541978 18.7429256,46.8662928 19.0398586,46.9087119 C19.1246967,46.9087119 19.2095347,46.9511309 19.2943727,46.9511309 C19.4216297,47.290483 19.7185627,47.5449969 20.1003339,47.587416 C20.2275909,47.6298349 20.354848,47.6298349 20.482105,47.672254 L20.482105,47.714673 C20.651781,48.0540251 20.991133,48.2661201 21.3729041,48.308539 L23.3665974,48.4782151 C23.7483685,48.520634 24.1301395,48.308539 24.3422345,48.011606 L24.6391676,48.011606 C25.0209386,48.2788457 25.4714285,48.3055697 25.712326,48.3082421 L25.8693188,48.308539 C26.0814138,48.3933771 26.3359279,48.3933771 26.590442,48.3509581 L26.7176989,48.3509581 L28.2447832,48.5206342 L28.3720401,48.5206342 C28.5417162,48.5206342 28.6689732,48.4782152 28.8386492,48.4357962 C29.3476773,48.4782151 29.7294483,48.4782151 30.2384765,48.4357962 C30.4081526,48.5206342 30.6202476,48.5630531 30.7899236,48.5206342 L32.3170079,48.3509581 L32.4018457,48.3509581 C32.6139407,48.3933771 32.7836168,48.3933771 32.9957119,48.308539 L33.2078069,48.308539 C33.462321,48.308539 33.9713491,48.2661201 34.3955391,48.011606 L34.6924721,48.011606 C34.9045671,48.308539 35.2863382,48.520634 35.6681094,48.4782151 L37.5769647,48.308539 C37.8314788,48.308539 38.0859927,48.1812821 38.2556688,48.011606 C38.3405068,47.926768 38.4253448,47.799511 38.5101827,47.714673 C38.6374397,47.672254 38.8071157,47.672254 38.9343728,47.6298349 C39.3161439,47.5449969 39.6130769,47.2904828 39.7403339,46.9935499 C39.8251719,46.9935499 39.91001,46.951131 39.994848,46.9511309 C40.291781,46.8662928 40.5462951,46.6966168 40.6735521,46.4421028 C40.8432281,46.3996839 41.0553232,46.3148459 41.2674182,46.1875887 C41.6067703,45.9754937 41.7764462,45.5513036 41.7340272,45.1695327 L41.0553232,41.43666 C43.9822347,38.4673295 45.5941569,34.6071998 45.5941569,30.4501372 C45.5941569,21.7542409 38.3829257,14.6702668 29.4749344,14.6702668 Z M37.6193836,40.4610228 C37.7890597,40.8003749 37.7042216,41.224565 37.3648695,41.43666 C35.0483816,43.0443318 32.2946308,43.9030283 29.4749344,43.8969943 C26.6328609,43.8969943 23.8756254,43.0485822 21.5849991,41.43666 C21.245647,41.224565 21.203228,40.7579559 21.415323,40.4610228 C21.627418,40.1640898 22.0940271,40.0792518 22.4333792,40.2913468 C24.5119106,41.733593 26.972213,42.4971351 29.5173533,42.4971353 C32.0624936,42.4971354 34.522796,41.7335931 36.6013274,40.2913468 C36.9406795,40.0792518 37.3648695,40.1216707 37.6193836,40.4610228 Z M79.8864124,36.4426125 L57.9907093,36.4426125 C56.8861398,36.4426125 55.9907093,37.338043 55.9907093,38.4426125 L55.9907093,38.4426125 L55.9907093,39.3417995 C55.9907093,40.446369 56.8861398,41.3417995 57.9907093,41.3417995 L57.9907093,41.3417995 L79.8864124,41.3417995 C80.9909819,41.3417995 81.8864124,40.446369 81.8864124,39.3417995 L81.8864124,39.3417995 L81.8864124,38.4426125 C81.8864124,37.338043 80.9909819,36.4426125 79.8864124,36.4426125 L79.8864124,36.4426125 Z M31.2565326,28.6685391 L32.1473318,29.6017571 L33.377483,29.2624051 L32.7411979,30.3228803 C33.0381309,30.6198133 33.292645,30.9591654 33.5471589,31.3409365 L32.2321698,31.0015844 L31.5110466,32.1468975 L31.3413706,30.8319083 C31.0020185,30.6622322 30.5354095,30.5773942 30.1112194,30.4925563 L31.3413706,29.9835281 C31.3413706,29.5593381 31.2565326,29.135148 31.2565326,28.6685391 Z M27.693336,28.6685391 C27.693336,29.0927291 27.608498,29.5169192 27.608498,29.9835281 L28.8386492,30.4925563 C28.4144592,30.5773944 27.9478501,30.6622324 27.608498,30.8319083 L27.438822,32.1468975 L26.6328609,31.0015844 L25.4027097,31.3409365 C25.6572238,31.0015844 25.9541568,30.6622324 26.2086709,30.2804613 L25.5723857,29.2624051 L26.802537,29.6017571 L27.693336,28.6685391 Z M98.7832768,25.6815484 L57.9907093,25.6815484 C56.8861398,25.6815484 55.9907093,26.5769789 55.9907093,27.6815484 L55.9907093,27.6815484 L55.9907093,28.5807355 C55.9907093,29.685305 56.8861398,30.5807355 57.9907093,30.5807355 L57.9907093,30.5807355 L98.7832768,30.5807355 C99.8878463,30.5807355 100.783277,29.685305 100.783277,28.5807355 L100.783277,28.5807355 L100.783277,27.6815484 C100.783277,26.5769789 99.8878463,25.6815484 98.7832768,25.6815484 L98.7832768,25.6815484 Z M35.9650424,24.9780854 L36.3043944,26.3779127 L37.6193836,26.3779127 L36.5589085,27.0566168 C36.6437465,27.4808068 36.7285845,27.989835 36.8134225,28.4564439 C36.4740704,28.1170918 36.0922994,27.8625778 35.7529474,27.6080639 C35.3287574,27.862578 34.8621483,28.0322539 34.5227962,28.286768 L34.9469862,27.0566168 L33.9713491,26.2930747 C34.4379582,26.2082366 34.8621482,26.2930747 35.3287572,26.2930747 L35.9650424,24.9780854 Z M22.8999883,24.9780854 L23.6211114,26.2930747 C24.0453014,26.2930747 24.5119104,26.2082366 24.9361006,26.2930747 L23.9604635,27.0566168 L24.3846535,28.286768 C24.0453014,28.0322539 23.5786924,27.862578 23.1545024,27.6080639 C22.8151503,27.862578 22.4333792,28.1170919 22.0940271,28.4564439 C22.1788651,28.0322539 22.2637032,27.5232257 22.3485412,27.0566168 L21.2880661,26.3779127 L22.6454742,26.3779127 L22.8999883,24.9780854 Z M29.4749344,20.6937657 L30.3657335,23.2813251 L33.0381309,23.2813251 L30.8323426,24.8508285 L30.8323426,24.9356665 L31.5534657,27.1838738 L29.5173533,25.7840465 L27.481241,27.1838738 L28.2023641,24.9356665 L28.2023641,24.8508285 L25.9965757,23.2813251 L28.5841351,23.2813251 L29.4749344,20.6937657 Z M89.6847865,14.9204844 L57.9907093,14.9204844 C56.8861398,14.9204844 55.9907093,15.8159149 55.9907093,16.9204844 L55.9907093,16.9204844 L55.9907093,17.8196714 C55.9907093,18.9242409 56.8861398,19.8196714 57.9907093,19.8196714 L57.9907093,19.8196714 L89.6847865,19.8196714 C90.789356,19.8196714 91.6847865,18.9242409 91.6847865,17.8196714 L91.6847865,17.8196714 L91.6847865,16.9204844 C91.6847865,15.8159149 90.789356,14.9204844 89.6847865,14.9204844 L89.6847865,14.9204844 Z" fill="#E8F0F9"></path>
                <circle id="椭圆形" stroke="#FF8049" cx="55.9907093" cy="38.892206" r="10.3222713"></circle>
                <rect id="矩形" stroke="#FF8049" x="50.6213862" y="38.8586312" width="10.7386462" height="1"></rect>
                <path d="" id="矩形-copy-4" stroke="#FF8049" transform="translate(55.990709, 38.892206) rotate(90.000000) translate(-55.990709, -38.892206) "></path>
            </g>
        </g>
    </g>
</svg>