<?xml version="1.0" encoding="UTF-8"?>
<svg width="61px" height="77px" viewBox="0 0 61 77" version="1.1" xmlns="http://www.w3.org/2000/svg" xmlns:xlink="http://www.w3.org/1999/xlink">
    <title>租赁合同</title>
    <g id="PC" stroke="none" stroke-width="1" fill="none" fill-rule="evenodd">
        <g id="新增工厂" transform="translate(-607.000000, -575.000000)" fill-rule="nonzero">
            <g id="租赁合同" transform="translate(607.000000, 575.128525)">
                <path d="M56.0045045,0.395067962 C58.2136435,0.395067962 60.0045045,2.18592896 60.0045045,4.39506796 L60.0045045,72.7013743 C60.0045045,74.9105133 58.2136435,76.7013743 56.0045045,76.7013743 L4.34684685,76.7013743 C2.13770785,76.7013743 0.346846847,74.9105133 0.346846847,72.7013743 L0.346846847,4.39506796 C0.346846847,2.18592896 2.13770785,0.395067962 4.34684685,0.395067962 L56.0045045,0.395067962 Z M34.0720721,36.1202932 L12.4054054,36.1202932 C11.3008359,36.1202932 10.4054054,37.0157237 10.4054054,38.1202932 L10.4054054,38.1202932 L10.4054054,38.976149 C10.4054054,40.0807185 11.3008359,40.976149 12.4054054,40.976149 L12.4054054,40.976149 L34.0720721,40.976149 C35.1766416,40.976149 36.0720721,40.0807185 36.0720721,38.976149 L36.0720721,38.976149 L36.0720721,38.1202932 C36.0720721,37.0157237 35.1766416,36.1202932 34.0720721,36.1202932 L34.0720721,36.1202932 Z M52.8018018,25.4544061 L12.4054054,25.4544061 C11.3008359,25.4544061 10.4054054,26.3498366 10.4054054,27.4544061 L10.4054054,27.4544061 L10.4054054,28.310262 C10.4054054,29.4148315 11.3008359,30.310262 12.4054054,30.310262 L12.4054054,30.310262 L52.8018018,30.310262 C53.9063713,30.310262 54.8018018,29.4148315 54.8018018,28.310262 L54.8018018,28.310262 L54.8018018,27.4544061 C54.8018018,26.3498366 53.9063713,25.4544061 52.8018018,25.4544061 L52.8018018,25.4544061 Z M43.7837838,14.7885191 L12.4054054,14.7885191 C11.3008359,14.7885191 10.4054054,15.6839496 10.4054054,16.7885191 L10.4054054,16.7885191 L10.4054054,17.6443749 C10.4054054,18.7489444 11.3008359,19.6443749 12.4054054,19.6443749 L12.4054054,19.6443749 L43.7837838,19.6443749 C44.8883533,19.6443749 45.7837838,18.7489444 45.7837838,17.6443749 L45.7837838,17.6443749 L45.7837838,16.7885191 C45.7837838,15.6839496 44.8883533,14.7885191 43.7837838,14.7885191 L43.7837838,14.7885191 Z" id="身份证正面" fill="#E8F0F9"></path>
                <circle id="椭圆形" stroke="#FF8049" cx="31.2475164" cy="38.5482211" r="13.4198506"></circle>
                <rect id="矩形" stroke="#FF8049" x="24.1168858" y="38.3545274" width="14.2612613" height="1"></rect>
                <path d="" id="矩形-copy-4" stroke="#FF8049" transform="translate(31.247516, 38.548221) rotate(90.000000) translate(-31.247516, -38.548221) "></path>
            </g>
        </g>
    </g>
</svg>