<?xml version="1.0" encoding="UTF-8"?>
<svg width="112px" height="78px" viewBox="0 0 112 78" version="1.1" xmlns="http://www.w3.org/2000/svg" xmlns:xlink="http://www.w3.org/1999/xlink">
    <title>身份证正面</title>
    <g id="PC" stroke="none" stroke-width="1" fill="none" fill-rule="evenodd">
        <g id="新增工厂" transform="translate(-605.000000, -775.000000)" fill-rule="nonzero">
            <g id="身份证正面" transform="translate(605.000000, 774.819557)">
                <path d="M103.981419,0.398593349 C108.399697,0.398593349 111.981419,3.98031535 111.981419,8.39859335 L111.981419,69.3858187 C111.981419,73.8040967 108.399697,77.3858187 103.981419,77.3858187 L8,77.3858187 C3.581722,77.3858187 8.38952134e-15,73.8040967 0,69.3858187 L0,8.39859335 C-2.31743984e-15,3.98031535 3.581722,0.398593349 8,0.398593349 L103.981419,0.398593349 Z M98.7832768,60.8898964 L13.1981419,60.8898964 C12.0935724,60.8898964 11.1981419,61.7853269 11.1981419,62.8898964 L11.1981419,62.8898964 L11.1981419,63.7890834 C11.1981419,64.8936529 12.0935724,65.7890834 13.1981419,65.7890834 L13.1981419,65.7890834 L98.7832768,65.7890834 C99.8878463,65.7890834 100.783277,64.8936529 100.783277,63.7890834 L100.783277,63.7890834 L100.783277,62.8898964 C100.783277,61.7853269 99.8878463,60.8898964 98.7832768,60.8898964 L98.7832768,60.8898964 Z M29.2905814,13.7121229 C25.1198839,13.9070153 22.3913903,16.6355089 22.118541,19.2080886 C22.0405841,19.9486798 22.1964979,21.3129266 22.4303689,22.8720658 C21.3389713,22.6771735 21.8067132,24.9769039 21.8456916,25.717495 C21.9236487,26.4580861 22.1964981,27.666419 23.0930031,27.4325481 C23.5217664,30.589805 24.9639701,31.6032456 24.9639701,31.6032456 L24.9639701,31.6032456 L24.9249916,34.9553949 C24.9249917,34.9553949 24.8080563,35.4621152 20.9881651,36.9043189 C17.168274,38.3465227 19.1561765,37.1771684 16.037898,38.6193721 C11.2989354,40.7631885 11.132656,46.6087009 11.1268216,47.016273 L11.1266094,47.0387239 C11.1266094,47.9742074 11.9451575,48.753777 12.9585981,48.753777 L12.9585981,48.753777 L45.8954143,48.753777 C46.9088547,48.753777 47.7274028,47.9742075 47.7274028,47.0387239 C47.7274028,47.0387239 47.7274028,40.8411454 42.8550927,38.6193721 C39.7368142,37.1771682 41.7247168,38.2685656 37.9048256,36.8263619 C34.2759291,35.4562684 33.6371693,34.9656268 33.5823655,34.9199879 L33.5782143,34.9164165 L33.5392359,31.564267 C33.5392359,31.564267 34.9814396,30.589805 35.4102029,27.4325481 C36.3067079,27.666419 36.6185359,26.4970646 36.6575143,25.717495 C36.7354713,24.9769038 37.203213,22.6771735 36.1118156,22.8720658 C36.3456865,21.351905 36.5016005,19.9486797 36.4236435,19.2080886 C36.150794,16.5965305 34.20187,13.9070153 29.2905814,13.7121229 Z M79.8864124,36.4426125 L57.9907093,36.4426125 C56.8861398,36.4426125 55.9907093,37.338043 55.9907093,38.4426125 L55.9907093,38.4426125 L55.9907093,39.3417995 C55.9907093,40.446369 56.8861398,41.3417995 57.9907093,41.3417995 L57.9907093,41.3417995 L79.8864124,41.3417995 C80.9909819,41.3417995 81.8864124,40.446369 81.8864124,39.3417995 L81.8864124,39.3417995 L81.8864124,38.4426125 C81.8864124,37.338043 80.9909819,36.4426125 79.8864124,36.4426125 L79.8864124,36.4426125 Z M98.7832768,25.6815484 L57.9907093,25.6815484 C56.8861398,25.6815484 55.9907093,26.5769789 55.9907093,27.6815484 L55.9907093,27.6815484 L55.9907093,28.5807355 C55.9907093,29.685305 56.8861398,30.5807355 57.9907093,30.5807355 L57.9907093,30.5807355 L98.7832768,30.5807355 C99.8878463,30.5807355 100.783277,29.685305 100.783277,28.5807355 L100.783277,28.5807355 L100.783277,27.6815484 C100.783277,26.5769789 99.8878463,25.6815484 98.7832768,25.6815484 L98.7832768,25.6815484 Z M89.6847865,14.9204844 L57.9907093,14.9204844 C56.8861398,14.9204844 55.9907093,15.8159149 55.9907093,16.9204844 L55.9907093,16.9204844 L55.9907093,17.8196714 C55.9907093,18.9242409 56.8861398,19.8196714 57.9907093,19.8196714 L57.9907093,19.8196714 L89.6847865,19.8196714 C90.789356,19.8196714 91.6847865,18.9242409 91.6847865,17.8196714 L91.6847865,17.8196714 L91.6847865,16.9204844 C91.6847865,15.8159149 90.789356,14.9204844 89.6847865,14.9204844 L89.6847865,14.9204844 Z" fill="#E8F0F9"></path>
                <circle id="椭圆形" stroke="#FF8049" cx="55.9907093" cy="38.892206" r="10.3222713"></circle>
                <rect id="矩形" stroke="#FF8049" x="50.6213862" y="38.8586312" width="10.7386462" height="1"></rect>
                <path d="" id="矩形-copy-4" stroke="#FF8049" transform="translate(55.990709, 38.892206) rotate(90.000000) translate(-55.990709, -38.892206) "></path>
            </g>
        </g>
    </g>
</svg>