<?xml version="1.0" encoding="UTF-8"?>
<svg width="13px" height="12px" viewBox="0 0 13 12" version="1.1" xmlns="http://www.w3.org/2000/svg" xmlns:xlink="http://www.w3.org/1999/xlink">
    <title>+</title>
    <g id="PC" stroke="none" stroke-width="1" fill="none" fill-rule="evenodd">
        <g id="新增打样订单" transform="translate(-350.000000, -692.000000)" fill="#6D7F7E" fill-rule="nonzero">
            <path d="M356.612353,692 C356.989761,692 357.295711,692.30595 357.295711,692.683359 L357.295353,697.316 L361.928994,697.316641 C362.306403,697.316641 362.612353,697.622591 362.612353,698 C362.612353,698.377409 362.306403,698.683359 361.928994,698.683359 L357.295353,698.683 L357.295711,703.316641 C357.295711,703.69405 356.989761,704 356.612353,704 C356.234944,704 355.928994,703.69405 355.928994,703.316641 L355.928353,698.683 L351.295711,698.683359 C350.918303,698.683359 350.612353,698.377409 350.612353,698 C350.612353,697.622591 350.918303,697.316641 351.295711,697.316641 L355.928353,697.316 L355.928994,692.683359 C355.928994,692.30595 356.234944,692 356.612353,692 Z" id="+"></path>
        </g>
    </g>
</svg>