<?xml version="1.0" encoding="UTF-8"?>
<svg width="11px" height="11px" viewBox="0 0 11 11" version="1.1" xmlns="http://www.w3.org/2000/svg" xmlns:xlink="http://www.w3.org/1999/xlink">
    <title>+备份</title>
    <g id="PC" stroke="none" stroke-width="1" fill="none" fill-rule="evenodd">
        <g id="新增定制订单2" transform="translate(-790.000000, -581.000000)" fill="#35C759" fill-rule="nonzero">
            <g id="1" transform="translate(327.951402, 336.000000)">
                <g id="货品信息" transform="translate(0.000000, 228.000000)">
                    <path d="M467.348976,17.1789287 C467.901261,17.1789287 468.348976,17.626644 468.348976,18.1789287 L468.348976,21.1789287 L471.348976,21.1789287 C471.901261,21.1789287 472.348976,21.626644 472.348976,22.1789287 C472.348976,22.7312135 471.901261,23.1789287 471.348976,23.1789287 L468.348976,23.1789287 L468.348976,26.1789287 C468.348976,26.7312135 467.901261,27.1789287 467.348976,27.1789287 C466.796691,27.1789287 466.348976,26.7312135 466.348976,26.1789287 L466.348976,23.1789287 L463.348976,23.1789287 C462.796691,23.1789287 462.348976,22.7312135 462.348976,22.1789287 C462.348976,21.626644 462.796691,21.1789287 463.348976,21.1789287 L466.348976,21.1789287 L466.348976,18.1789287 C466.348976,17.626644 466.796691,17.1789287 467.348976,17.1789287 Z" id="+备份"></path>
                </g>
            </g>
        </g>
    </g>
</svg>