<?xml version="1.0" encoding="UTF-8"?>
<svg width="18px" height="16px" viewBox="0 0 18 16" version="1.1" xmlns="http://www.w3.org/2000/svg" xmlns:xlink="http://www.w3.org/1999/xlink">
    <title>衣服备份</title>
    <g id="PC" stroke="none" stroke-width="1" fill="none" fill-rule="evenodd">
        <g id="新增打样订单" transform="translate(-472.000000, -690.000000)" fill="#6D7F7E" fill-rule="nonzero">
            <path d="M489.086307,694.270745 L485.999364,691.183897 C485.769365,690.95345 485.449844,690.835509 485.125279,690.861257 C485.09544,690.858663 485.065506,690.857235 485.035555,690.857235 L483.390882,690.857235 L483.275619,690.921423 C482.666399,691.260325 481.888924,691.446945 481.086579,691.446945 C480.284234,691.446945 479.506854,691.260325 478.897635,690.921423 L478.782276,690.857235 L477.137603,690.857235 C476.723166,690.856122 476.341946,691.083816 476.146437,691.449241 L473.095172,694.500601 C472.884542,694.711327 472.768514,694.991306 472.768514,695.289172 C472.768514,695.587038 472.884542,695.867113 473.095172,696.077743 L475.324578,698.307149 C475.508558,698.492081 475.75199,698.606022 476.011852,698.628833 L476.011852,704.016827 C476.011852,704.637621 476.516904,705.142769 477.137698,705.142769 L485.035555,705.142769 C485.656349,705.142769 486.161498,704.637621 486.161498,704.016827 L486.161498,698.399837 C486.424316,698.378607 486.670903,698.264184 486.856806,698.077197 L489.086499,695.847791 C489.520959,695.413044 489.520959,694.705492 489.086307,694.270745 L489.086307,694.270745 Z M488.366607,695.128187 L486.137106,697.357688 C486.119143,697.375959 486.094525,697.386144 486.068905,697.385906 C486.051209,697.385906 486.025095,697.381315 486.001755,697.359314 L485.143549,696.549221 L485.143549,704.016922 C485.143549,704.076706 485.095052,704.125107 485.035364,704.125107 L477.137603,704.125107 C477.108919,704.125107 477.081412,704.113706 477.061138,704.093415 C477.040865,704.073123 477.029488,704.045606 477.029514,704.016922 L477.029514,696.814852 L476.178002,697.590223 C476.15495,697.611267 476.12941,697.615667 476.112193,697.615667 C476.086656,697.615856 476.062128,697.605714 476.044183,697.587544 L473.814777,695.358043 C473.79115,695.334512 473.786272,695.307633 473.786272,695.289172 C473.786272,695.270711 473.791246,695.243832 473.814777,695.220206 L476.895024,692.139958 L476.993452,692.05167 L477.037453,691.94272 C477.053935,691.901806 477.093589,691.874901 477.137698,691.874901 L478.52248,691.874901 C479.267241,692.261152 480.15051,692.464512 481.086579,692.464512 C482.022744,692.464512 482.906012,692.261152 483.650869,691.874901 L485.034886,691.874901 C485.040434,691.875092 485.045886,691.875953 485.051147,691.876719 L485.123939,691.887145 L485.196541,691.876623 C485.219689,691.873371 485.250394,691.87404 485.27976,691.903406 L488.366703,694.990254 C488.404747,695.028377 488.404704,695.090116 488.366607,695.128187 Z" id="衣服备份"></path>
        </g>
    </g>
</svg>