<?xml version="1.0" encoding="UTF-8"?>
<svg width="16px" height="19px" viewBox="0 0 16 19" version="1.1" xmlns="http://www.w3.org/2000/svg" xmlns:xlink="http://www.w3.org/1999/xlink">
    <title>形状结合</title>
    <g id="PC" stroke="none" stroke-width="1" fill="none" fill-rule="evenodd">
        <g id="定制订单7" transform="translate(-510.000000, -238.000000)" fill="#FF8149" fill-rule="nonzero">
            <path d="M518.171053,238.882085 C518.612251,238.882085 519.023373,239.05888 519.386261,239.376334 C519.56861,239.536007 519.726278,239.717952 519.800189,239.838511 L519.800189,239.838511 L519.817882,239.865435 C520.003551,240.099108 520.377204,240.185858 520.606899,240.081672 L520.606899,240.081672 L520.688029,240.035901 L520.75785,239.998286 C520.803024,239.976067 520.853031,239.95463 520.90519,239.934821 C521.120808,239.851887 521.353893,239.808052 521.595554,239.808052 C522.683985,239.808052 523.618732,240.514216 523.618732,241.448099 C523.618732,242.157663 523.065516,242.760513 522.329718,242.975445 L522.329718,242.975445 L522.289283,242.989093 C522.158376,243.050721 522.038978,243.09881 521.964583,243.122934 L521.964583,243.122934 L521.90643,243.138682 C521.577311,243.241072 521.541463,243.439921 521.764312,243.598413 C521.789589,243.614699 521.812323,243.629457 521.834021,243.643714 L521.834021,243.643714 L521.963862,243.731459 C522.115679,243.835783 522.273539,243.950612 522.434033,244.074257 C522.941923,244.465101 523.423703,244.897407 523.860213,245.359764 C525.207024,246.786761 525.935956,248.292566 525.935956,249.817885 C525.936971,254.507259 522.927489,256.882085 517.886096,256.882085 C513.187858,256.882085 510,254.29396 510,249.818518 C510,248.183219 510.721951,246.625199 512.063267,245.197314 C512.496486,244.736146 512.975645,244.310216 513.481257,243.930341 C513.641498,243.809893 513.798448,243.699015 513.948252,243.599671 L513.948252,243.599671 L514.101263,243.50208 C514.355683,243.332861 514.346697,243.145297 514.112948,243.02577 L514.112948,243.02577 L514.02214,242.97967 L513.956659,242.959036 C513.262904,242.720511 512.769875,242.179689 512.726487,241.540554 L512.726487,241.540554 L512.723375,241.448602 C512.723375,240.514719 513.658122,239.808555 514.746552,239.808555 C514.988213,239.808555 515.221298,239.85239 515.437713,239.935631 C515.537495,239.974174 515.628198,240.01789 515.659494,240.039498 L515.659494,240.039498 L515.693063,240.060517 C515.954329,240.188533 516.324872,240.10376 516.497356,239.900461 L516.497356,239.900461 L516.522451,239.868007 C516.614575,239.718998 516.77272,239.536687 516.956061,239.376146 C517.318734,239.05888 517.729856,238.882085 518.171053,238.882085 Z M518.171053,240.074856 C518.040765,240.074856 517.899456,240.135624 517.741619,240.273699 C517.644476,240.358761 517.564023,240.451508 517.514006,240.529677 L517.514006,240.529677 L517.438774,240.63154 C516.891673,241.284496 515.929496,241.504625 515.132196,241.112402 L515.132196,241.112402 L515.042013,241.061437 L514.94734,241.028246 C514.884485,241.010637 514.817291,241.001326 514.746552,241.001326 C514.255673,241.001326 513.916146,241.257825 513.916146,241.448602 C513.916146,241.574511 514.081813,241.755108 514.437647,241.861562 L514.437647,241.861562 L514.549434,241.905419 L514.653606,241.954775 L514.649971,241.960393 L514.670538,241.968378 C514.695464,241.978944 514.716814,241.990652 514.736544,242.004729 L514.736544,242.004729 L514.74973,242.015694 L514.831169,242.066486 C515.683052,242.636259 515.708656,243.789866 514.824659,244.4491 L514.824659,244.4491 L514.736269,244.511317 C514.712861,244.525231 514.665486,244.555257 514.607407,244.593762 L514.607407,244.593762 L514.474817,244.683701 C514.384925,244.74601 514.292222,244.812923 514.197829,244.883875 C513.745746,245.223533 513.31781,245.60393 512.932619,246.013971 C511.785247,247.235395 511.192771,248.513999 511.192771,249.818518 C511.192771,253.574023 513.798227,255.689314 517.886096,255.689314 C522.322391,255.689314 524.744042,253.778354 524.743186,249.818015 C524.743186,248.632818 524.14716,247.401568 522.992841,246.178523 C522.600665,245.763126 522.165711,245.372838 521.706348,245.019337 C521.56284,244.908779 521.422461,244.806665 521.286304,244.713096 L521.286304,244.713096 L521.243455,244.683643 L521.096672,244.586481 C520.033393,243.833608 520.293407,242.391337 521.603287,241.986291 C521.615304,241.981691 521.639872,241.972044 521.676545,241.956634 L521.676545,241.956634 L521.822434,241.892393 L521.948306,241.846265 C522.260346,241.754308 522.425961,241.573834 522.425961,241.448099 C522.425961,241.257322 522.086434,241.000823 521.595554,241.000823 C521.501236,241.000823 521.413219,241.017376 521.331058,241.048972 L521.331058,241.048972 L521.306095,241.057425 L521.322632,241.044214 L521.274105,241.074755 L521.150414,241.142335 C520.380773,241.498514 519.413604,241.273968 518.863147,240.579556 L518.863147,240.579556 L518.787761,240.470382 C518.750565,240.420703 518.681147,240.344327 518.600703,240.273887 C518.442651,240.135624 518.301341,240.074856 518.171053,240.074856 Z M516.109206,245.871193 L517.582595,248.786366 L518.376352,248.786366 L519.835804,245.871193 L521.158111,245.871193 L519.689757,248.786366 L521.158111,248.786366 L521.158111,249.847232 L518.529482,249.847232 L518.529482,250.917013 L521.158111,250.917013 L521.158111,251.954101 L518.529482,251.954101 L518.529482,253.63703 L517.393562,253.63703 L517.393562,251.954101 L514.777844,251.954101 L514.777844,250.917013 L517.393562,250.917013 L517.393562,249.847232 L514.777844,249.847232 L514.777844,248.786366 L516.226795,248.786366 L514.777844,245.871193 L516.109206,245.871193 Z" id="形状结合"></path>
        </g>
    </g>
</svg>