<?xml version="1.0" encoding="UTF-8"?>
<svg width="73px" height="73px" viewBox="0 0 73 73" version="1.1" xmlns="http://www.w3.org/2000/svg" xmlns:xlink="http://www.w3.org/1999/xlink">
    <title>拍照/相册</title>
    <defs>
        <linearGradient x1="50%" y1="0%" x2="50%" y2="100%" id="linearGradient-1">
            <stop stop-color="#FFFFFF" offset="0%"></stop>
            <stop stop-color="#FFEBE5" offset="100%"></stop>
        </linearGradient>
    </defs>
    <g id="PC" stroke="none" stroke-width="1" fill="none" fill-rule="evenodd">
        <g id="新增打样订单" transform="translate(-330.000000, -376.000000)">
            <g id="拍照/相册" transform="translate(330.343662, 376.500000)">
                <rect id="矩形备份" fill="#FF8149" x="0" y="0" width="72" height="72" rx="5"></rect>
                <g id="camera" transform="translate(20.160000, 14.468501)">
                    <rect id="矩形" fill="url(#linearGradient-1)" x="0.515055484" y="0.515055484" width="30.903329" height="30.903329" rx="5"></rect>
                    <g transform="translate(6.180666, 9.270999)">
                        <path d="M18.5419974,14.2766701 L0.686740645,14.2766701 C0.274696258,14.2766701 -4.54747351e-13,14.0019738 -4.54747351e-13,13.5899294 L-4.54747351e-13,2.93227438 C-4.54747351e-13,2.52023 0.274696258,2.24553374 0.686740645,2.24553374 L3.77707355,2.24553374 L3.77707355,0.686740645 C3.77707355,0.274696258 4.05176981,1.13686838e-13 4.46381419,1.13686838e-13 L14.7649239,1.13686838e-13 C15.1769683,1.13686838e-13 15.4516645,0.274696258 15.4516645,0.686740645 L15.4516645,2.24553374 L18.5419974,2.24553374 C18.9540418,2.24553374 19.2287381,2.52023 19.2287381,2.93227438 L19.2287381,13.5899294 C19.2287381,14.0019738 18.9540418,14.2766701 18.5419974,14.2766701 Z" id="路径" fill="#FF8049" fill-rule="nonzero"></path>
                        <path d="M9.61436903,4.85552495 C7.78941559,4.85552495 6.32945284,6.3154877 6.32945284,8.14044114 C6.32945284,9.96539458 7.78941559,11.4253573 9.61436903,11.4253573 C11.4393225,11.4253573 12.8992852,9.96539458 12.8992852,8.14044114 C12.8992852,6.3154877 11.4393225,4.85552495 9.61436903,4.85552495 Z" id="路径" stroke="#FFFFFF" stroke-width="0.8" fill-rule="nonzero"></path>
                        <path d="M14.7460474,3.91909822 C14.2258104,3.91909822 13.8096207,4.33528788 13.8096207,4.85552495 C13.8096207,5.37576201 14.2258104,5.79195167 14.7460474,5.79195167 C15.2662845,5.79195167 15.6824741,5.37576201 15.6824741,4.85552495 C15.6824741,4.33528788 15.2662845,3.91909822 14.7460474,3.91909822 Z" id="路径备份" fill="#F7D23D" fill-rule="nonzero"></path>
                        <path d="M1.4906403,0.795096496 L2.76349375,0.795096496 C2.92917918,0.795096496 3.06349375,0.929411071 3.06349375,1.0950965 L3.06349375,1.81191036 L3.06349375,1.81191036 L1.1906403,1.81191036 L1.1906403,1.0950965 C1.1906403,0.929411071 1.32495488,0.795096496 1.4906403,0.795096496 Z" id="矩形" fill="#FF8049"></path>
                    </g>
                </g>
                <text id="我的相册" font-family="PingFangSC-Regular, PingFang SC" font-size="10" font-weight="normal" letter-spacing="-0.25" fill="#FFFFFF">
                    <tspan x="16.5" y="61.1344382">我的相册</tspan>
                </text>
            </g>
        </g>
    </g>
</svg>