<?xml version="1.0" encoding="UTF-8"?>
<svg width="24px" height="24px" viewBox="0 0 24 24" version="1.1" xmlns="http://www.w3.org/2000/svg" xmlns:xlink="http://www.w3.org/1999/xlink">
    <title>进行中</title>
    <g id="PC" stroke="none" stroke-width="1" fill="none" fill-rule="evenodd">
        <g id="打样订单2" transform="translate(-873.000000, -185.000000)" fill-rule="nonzero">
            <g id="订单信息" transform="translate(307.840489, 79.000000)">
                <g id="进行中" transform="translate(566.081816, 106.303164)">
                    <path d="M10.8680119,7.87461421 L10.7541756,7.8684817 C10.1721195,7.86492841 9.69476077,8.33513262 9.68994744,8.91968692 L9.68994744,13.6461674 C9.68994744,13.6860254 9.6947675,13.72131 9.70205586,13.7529059 L9.7141189,13.7956452 C9.72618902,13.886932 9.73620544,13.9381149 9.76199926,14.0068471 C9.77936844,14.0509122 9.79461618,14.0825422 9.81603373,14.1199353 L9.85382381,14.1826221 C9.89443933,14.2522009 9.92086356,14.2922233 9.96785785,14.344912 L10.0209096,14.3973729 L10.129425,14.4834514 C10.1635676,14.5184983 10.2052905,14.5527365 10.2635688,14.5809265 L14.3655191,16.7617412 C14.5204282,16.844158 14.6934281,16.8870388 14.8690217,16.886554 C15.2559479,16.8883909 15.6155157,16.6774371 15.8039542,16.3364177 C15.9396772,16.0874022 15.9694366,15.7963714 15.8875117,15.5269599 L15.8461062,15.4143524 C15.7509503,15.1951417 15.5831928,15.0137264 15.3692579,14.901973 L11.8185585,13.0127313 L11.8187069,8.92252549 C11.8127439,8.3745067 11.3976712,7.92952025 10.8680119,7.87461421 Z" id="路径" fill="#EEEEEE"></path>
                    <path d="M15.3857334,0.687187348 C15.1190012,0.755791984 14.8863142,0.931338907 14.7444039,1.17352675 L14.6820318,1.29820871 C14.5924507,1.51149769 14.5750691,1.74974337 14.6349451,1.97586844 L14.7749775,2.49310466 L14.6214541,2.44012633 C13.5483536,2.0933282 12.4259567,1.91575421 11.2947468,1.91542314 C5.42727987,1.91542313 0.652602473,6.62481045 0.652602473,12.4162629 C0.652602473,18.2077154 5.42727987,22.9171027 11.2946457,22.9171027 C17.1612109,22.9171027 21.9366888,18.2075491 21.9366888,12.4172536 C21.9366888,11.8331681 21.4593655,11.3616951 20.8723196,11.3616951 C20.5934955,11.3601523 20.3236491,11.4701893 20.1240514,11.6676037 C19.9244538,11.865018 19.8114555,12.1336378 19.8099159,12.4143677 C19.8099107,17.0427443 15.9915915,20.8079672 11.2956363,20.8079672 C6.5990204,20.8079672 2.78134085,17.0430907 2.78134085,12.4162629 C2.78134085,7.78859902 6.59888453,4.02356803 11.2956363,4.02356803 L11.6755285,4.03376995 C12.0548987,4.05232844 12.4324226,4.09590724 12.8055767,4.16406137 L13.1497694,4.23383476 L13.1337157,4.24266172 C12.7488079,4.44179308 12.5159675,4.86784429 12.5756542,5.31632281 C12.6461931,5.84634289 13.1028888,6.23927085 13.6375001,6.22990473 C13.7228245,6.23035012 13.815331,6.21866123 13.9051641,6.19518239 L16.2154939,5.58400936 C16.609699,5.48319932 16.9494498,5.22690603 17.1560961,4.8731008 C17.3621783,4.52283812 17.4173244,4.10276157 17.3083358,3.71011211 L16.690109,1.43207566 C16.6158796,1.15990544 16.4367838,0.928757235 16.192152,0.789121687 C15.9474849,0.649525991 15.6573934,0.612822297 15.3857334,0.687187348 Z" id="路径" fill="#CFCFCF"></path>
                </g>
            </g>
        </g>
    </g>
</svg>