<?xml version="1.0" encoding="UTF-8"?>
<svg width="22px" height="22px" viewBox="0 0 22 22" version="1.1" xmlns="http://www.w3.org/2000/svg" xmlns:xlink="http://www.w3.org/1999/xlink">
    <title>已收货</title>
    <g id="PC" stroke="none" stroke-width="1" fill="none" fill-rule="evenodd">
        <g id="打样订单7" transform="translate(-1109.000000, -186.000000)">
            <g id="订单信息" transform="translate(307.840489, 79.000000)">
                <g id="已收货" transform="translate(802.004121, 107.231503)">
                    <path d="M16.647819,0 C17.1726722,0 17.6663731,0.238597162 17.992035,0.642365763 L18.0845555,0.768378061 L20.5316963,4.41068572 L20.5826803,4.57799096 L20.5826803,18.8552596 C20.5826803,19.7558162 19.8853543,20.5005091 19.0037249,20.5764032 L18.8551682,20.5827717 L1.72751214,20.5827717 C0.826987992,20.5827717 0.0822660154,19.8854765 0.00636875511,19.0038212 L0,18.8552596 L0,4.57799096 L0.0499024128,4.41230693 L2.46332518,0.769283212 C2.75456293,0.332388869 3.22702749,0.0540766273 3.74430045,0.00708509861 L3.90069018,0 L16.647819,0 Z M18.5550922,6.30449676 L2.02709219,6.30449676 L2.02709219,18.5544968 L18.5550922,18.5544968 L18.5550922,6.30449676 Z M16.6550922,2.02549676 L3.96709219,2.03649676 L2.32009219,4.27749676 L18.2700922,4.27749676 L16.6550922,2.02549676 Z" id="形状" fill="#2ECD74" fill-rule="nonzero"></path>
                    <path d="M9.48466274,15.7880536 C9.49046469,15.7880536 9.49653441,15.7882321 9.50260414,15.7882321 C9.75360511,15.7882321 9.99362702,15.6850468 10.1664357,15.5026873 L15.011772,11.0054674 C15.4194255,10.6307512 15.4462929,9.99423343 15.0716659,9.58658 C14.890199,9.38904616 14.64259,9.27398917 14.3745402,9.26265306 C14.1078293,9.25149548 13.8501338,9.34504065 13.6507255,9.52838205 L9.48885799,13.4103281 L7.34785181,11.4199939 C6.94010912,11.0454562 6.30359136,11.0722344 5.92887511,11.4799771 C5.74731893,11.6775109 5.65368449,11.9338676 5.66493134,12.2019173 C5.67626744,12.4698778 5.79132443,12.7174869 5.9869838,12.8973471 L8.81136959,15.5280373 C8.99631767,15.6959366 9.23508994,15.7880536 9.48466274,15.7880536" id="Fill-1" fill="#B8EFD0"></path>
                </g>
            </g>
        </g>
    </g>
</svg>