<?xml version="1.0" encoding="UTF-8"?>
<svg width="24px" height="27px" viewBox="0 0 24 27" version="1.1" xmlns="http://www.w3.org/2000/svg" xmlns:xlink="http://www.w3.org/1999/xlink">
    <title>提交订单</title>
    <g id="PC" stroke="none" stroke-width="1" fill="none" fill-rule="evenodd">
        <g id="打样订单1" transform="translate(-644.000000, -185.000000)">
            <g id="订单信息" transform="translate(307.840489, 79.000000)">
                <g id="提交订单" transform="translate(337.343055, 106.875377)">
                    <path d="M18.017729,25.033234 L8.33737249,25.033234 C6.2110514,25.033234 4.47642105,23.2986037 4.47642105,21.1722826 C4.47642105,20.7246361 4.86811177,20.3329453 5.31575832,20.3329453 C5.76340487,20.3329453 6.15509559,20.7246361 6.15509559,21.1722826 C6.15509559,22.3473548 7.1063445,23.3545595 8.33737249,23.3545595 L18.0736848,23.3545595 C19.248757,23.3545595 20.2559617,22.4033106 20.2559617,21.1722826 L20.2559617,7.07141649 C20.2559617,6.06421177 19.9202268,4.72127214 16.9545684,4.72127214 C16.5069219,4.72127214 16.1152312,4.32958142 16.1152312,3.88193487 C16.1152312,3.43428832 16.5069219,3.0425976 16.9545684,3.0425976 C21.4310339,3.0425976 21.9346362,5.8403885 21.9346362,7.07141649 L21.9346362,21.2282384 C21.8786804,23.3545595 20.1440501,25.033234 18.017729,25.033234 Z" id="路径" fill="#B8EFD0"></path>
                    <path d="M13.8769985,21.8997082 L4.19664195,21.8997082 C2.07032086,21.8997082 0.335690515,20.1650779 0.335690515,18.0387568 L0.335690515,3.88193487 C0.335690515,1.75561378 2.07032086,0.0209834317 4.19664195,0.0209834317 L13.8769985,0.0209834317 C16.0033196,0.0209834317 17.7379499,1.75561378 17.7379499,3.88193487 L17.7379499,18.0387568 C17.7379499,20.1650779 16.0033196,21.8997082 13.8769985,21.8997082 Z M2.01436505,3.88193487 L2.01436505,18.0387568 C2.01436505,19.213829 2.96561397,20.2210337 4.19664195,20.2210337 L13.8769985,20.2210337 C15.0520706,20.2210337 16.0592754,19.2697848 16.0592754,18.0387568 L16.0592754,3.88193487 C16.0592754,2.70686269 15.1080264,1.69965797 13.8769985,1.69965797 L4.19664195,1.69965797 C3.41326052,1.69965797 2.01436505,2.70686269 2.01436505,3.88193487 Z" id="形状" fill="#2ECD74" fill-rule="nonzero"></path>
                    <path d="M8.78501904,6.17612341 L5.87531649,6.17612341 C5.42766994,6.17612341 5.03597922,5.7844327 5.03597922,5.33678614 C5.03597922,4.88913959 5.42766994,4.49744887 5.87531649,4.49744887 L8.78501904,4.49744887 C9.23266559,4.49744887 9.62435631,4.88913959 9.62435631,5.33678614 C9.62435631,5.7844327 9.23266559,6.17612341 8.78501904,6.17612341 Z M11.0792076,11.0442796 L6.04318394,11.0442796 C5.59553739,11.0442796 5.20384668,10.6525889 5.20384668,10.2049423 C5.20384668,9.75729575 5.59553739,9.36560503 6.04318394,9.36560503 L11.0792076,9.36560503 C11.5268541,9.36560503 11.9185448,9.75729575 11.9185448,10.2049423 C11.9185448,10.6525889 11.5828099,11.0442796 11.0792076,11.0442796 Z" id="形状" fill="#2ECD74" fill-rule="nonzero"></path>
                </g>
            </g>
        </g>
    </g>
</svg>