<?xml version="1.0" encoding="UTF-8"?>
<svg width="24px" height="22px" viewBox="0 0 24 22" version="1.1" xmlns="http://www.w3.org/2000/svg" xmlns:xlink="http://www.w3.org/1999/xlink">
    <title>工厂接单</title>
    <g id="PC" stroke="none" stroke-width="1" fill="none" fill-rule="evenodd">
        <g id="打样订单3" transform="translate(-761.000000, -186.000000)">
            <g id="订单信息" transform="translate(307.840489, 79.000000)">
                <g id="工厂接单" transform="translate(454.620663, 107.000000)">
                    <path d="M4.02095018,21.7882334 C2.24603389,21.7882334 0.80204762,20.3442128 0.80204762,18.5692965 L0.80204762,3.5146823 C0.80204762,1.76984119 2.32338971,0.295779739 4.12418302,0.295779739 L14.8113951,0.295779739 C16.5863114,0.295779739 18.0303321,1.73976601 18.0303321,3.5146823 L18.0303321,11.356557 C17.7121685,11.3033233 17.3856087,11.2751751 17.0525452,11.2751751 C16.6527245,11.2751751 16.2621259,11.3153327 15.884397,11.3914153 L15.884397,3.5146823 C15.884397,2.92305503 15.4030568,2.44171477 14.8113951,2.44171477 L4.12418302,2.44171477 C3.5086057,2.44171477 2.94798268,2.95313017 2.94798268,3.5146823 L2.94798268,18.5692621 C2.94798268,19.1608893 3.42932291,19.642264 4.02095022,19.642264 L11.6837159,19.642264 C12.0700476,20.4818565 12.6476696,21.2158075 13.3604234,21.7882334 L4.02095018,21.7882334 L4.02095018,21.7882334 Z M13.7110365,9.97100049 C13.7110365,10.5611481 13.2282166,11.043968 12.638069,11.043968 L6.21072478,11.043968 C5.62057717,11.043968 5.13775725,10.5611481 5.13775725,9.97100049 L5.13775725,9.97100049 C5.13775725,9.38085288 5.62057714,8.89803296 6.21072478,8.89803296 L12.638069,8.89803296 C13.2282166,8.89803296 13.7110365,9.38085288 13.7110365,9.97100049 L13.7110365,9.97100049 Z M13.7110365,5.66488429 C13.7110365,6.2550319 13.2282166,6.73785182 12.638069,6.73785182 L6.21072478,6.73785182 C5.62057717,6.73785182 5.13775725,6.25503194 5.13775725,5.66488429 L5.13775725,5.66488429 C5.13775725,5.07473668 5.62057714,4.59191676 6.21072478,4.59191676 L12.638069,4.59191676 C13.2282166,4.59191676 13.7110365,5.07473668 13.7110365,5.66488429 L13.7110365,5.66488429 Z" id="提交" fill="#2ECD74" fill-rule="nonzero"></path>
                    <path d="M15.8018372,20.2780042 C15.8076391,20.2780042 15.8137089,20.2781827 15.8197786,20.2781827 C16.0707796,20.2781827 16.3108015,20.1749974 16.4836101,19.9926379 L21.3289465,15.4954181 C21.7365999,15.1207018 21.7634674,14.4841841 21.3888404,14.0765306 C21.2073735,13.8789968 20.9597644,13.7639398 20.6917147,13.7526037 C20.4250038,13.7414461 20.1673083,13.8349913 19.9679,14.0183327 L15.8060325,17.9002788 L13.6650263,15.9099446 C13.2572836,15.5354069 12.6207658,15.5621851 12.2460496,15.9699277 C12.0644934,16.1674616 11.970859,16.4238182 11.9821058,16.691868 C11.9934419,16.9598285 12.1084989,17.2074375 12.3041583,17.3872978 L15.128544,20.0179879 C15.3134921,20.1858872 15.5522644,20.2780042 15.8018372,20.2780042" id="Fill-1" fill="#B8EFD0"></path>
                </g>
            </g>
        </g>
    </g>
</svg>