<?xml version="1.0" encoding="UTF-8"?>
<svg width="30px" height="22px" viewBox="0 0 30 22" version="1.1" xmlns="http://www.w3.org/2000/svg" xmlns:xlink="http://www.w3.org/1999/xlink">
    <title>给客户发货</title>
    <g id="PC" stroke="none" stroke-width="1" fill="none" fill-rule="evenodd">
        <g id="打样订单9" transform="translate(-1222.000000, -186.000000)" fill-rule="nonzero">
            <g id="订单信息" transform="translate(307.840489, 79.000000)">
                <g id="给客户发货" transform="translate(915.965274, 107.000000)">
                    <path d="M14.5567348,0.507753952 C15.8761271,0.509072038 16.9553828,1.53560478 17.0408271,2.83389824 L17.046277,2.99754584 L17.046,4.843 L21.5634448,4.84391944 L21.7454177,4.92249636 L27.4014807,10.9266478 L27.4695079,11.0980709 L27.4695079,17.5647355 L24.536,17.564 L24.5441646,17.6606174 L24.5492254,17.8402295 C24.5492254,19.9943749 22.7973222,21.7462782 20.6431768,21.7462782 C18.4889681,21.7462782 16.7367546,19.9943118 16.736762,17.8383123 L16.7427435,17.6504463 L16.749,17.564 L11.643,17.564 L11.6475454,17.7001725 C11.6475454,19.7197431 10.1077312,21.3859976 8.14034534,21.5863905 L7.94222271,21.6015024 L7.74149677,21.6065946 C5.65472959,21.6065947 3.94533867,19.9621833 3.84054633,17.8991607 L3.83545548,17.6982477 L3.844,17.475 L2.56810061,17.4758459 C1.30368293,17.4745827 0.25980741,16.5317596 0.0998103731,15.3105184 L0.084008257,15.1497016 L0.0785583434,14.986054 L0.078351639,11.162754 L1.99335164,11.162754 L1.99406794,14.9854545 C1.9943261,15.2710048 2.20256803,15.5078702 2.4752621,15.5527015 L2.56835036,15.5603363 L4.481,15.56 L4.52651524,15.4911357 C5.20638036,14.5028688 6.30160708,13.8716336 7.51306029,13.8007902 L7.74149677,13.7941238 C9.08502399,13.7941238 10.3102118,14.4829769 11.022828,15.5880054 L11.059,15.649 L15.131,15.649 L15.131141,2.99788497 C15.1307538,2.71242622 14.9225329,2.47569818 14.649671,2.43089349 L14.5568585,2.4232633 L2.56868949,2.4232633 C2.28323073,2.42365053 2.04650269,2.63187142 2.00169818,2.90448609 L1.99406794,2.99754584 L1.99335164,6.05275395 L0.078351639,6.05275395 L0.0785583434,2.99729609 C0.0798765383,1.67790373 1.10640928,0.598648014 2.40448179,0.513203852 L2.56810061,0.507753952 L14.5567348,0.507753952 Z M20.6431768,15.8493171 C19.5456228,15.8493171 18.6522643,16.7425728 18.6522643,17.8402295 C18.6522643,18.9378862 19.5456228,19.831142 20.6431768,19.831142 C21.7405953,19.831142 22.6340892,18.9376481 22.6340892,17.8402295 C22.6340892,16.742811 21.7405953,15.8493171 20.6431768,15.8493171 Z M7.74149677,15.70926 C6.64384006,15.70926 5.75058429,16.6026186 5.75058429,17.7001725 C5.75058429,18.797591 6.64407822,19.6910849 7.74149677,19.6910849 C8.83905067,19.6910849 9.73240922,18.7978292 9.73240922,17.7001725 C9.73240922,16.6023804 8.83928881,15.70926 7.74149677,15.70926 Z M20.844,6.759 L17.046,6.759 L17.046,15.649 L17.416,15.649 L17.4623196,15.5819298 C18.1461527,14.6200869 19.2267857,14.0091741 20.41881,13.9406302 L20.6435502,13.9341808 C21.9237494,13.9341808 23.0982873,14.5600336 23.8245081,15.5819864 L23.869,15.649 L25.554,15.649 L25.554,11.759 L20.844,6.759 Z" id="形状结合" fill="#2ECD74"></path>
                    <path d="M6.78131243,4.58161797 C7.07244177,4.29048863 7.53387939,4.26336867 7.85633955,4.51409663 L7.85633955,4.51409663 L7.93281454,4.58161797 L11.3833282,8.03213164 C11.6744575,8.32326098 11.7015775,8.7846986 11.4408852,9.11917949 L11.4408852,9.11917949 L11.3833282,9.18363374 L7.93281454,12.6341474 C7.61483601,12.9521259 7.09929095,12.9521259 6.78131243,12.6341474 C6.49018309,12.3430181 6.46306312,11.8815804 6.72375539,11.5470996 L6.72375539,11.5470996 L6.7813062,11.4826515 L8.83955834,9.42211226 L0.892793292,9.42211764 C0.477695251,9.42211764 0.135146063,9.11149907 0.0849023896,8.71001859 L0.0785583434,8.60788269 C0.0785583434,8.19349018 0.389580627,7.8465677 0.812593319,7.79785873 L0.812593319,7.79785873 L0.892793292,7.79364774 L8.84055834,7.79311226 L6.78131243,5.73312008 C6.54840895,5.5002166 6.48447148,5.15831583 6.60168708,4.85961744 L6.65415827,4.74992792 L6.72375539,4.64607222 Z" id="形状结合" fill="#B8EFD0"></path>
                </g>
            </g>
        </g>
    </g>
</svg>