<?xml version="1.0" encoding="UTF-8"?>
<svg width="23px" height="22px" viewBox="0 0 23 22" version="1.1" xmlns="http://www.w3.org/2000/svg" xmlns:xlink="http://www.w3.org/1999/xlink">
    <title>已发货</title>
    <g id="PC" stroke="none" stroke-width="1" fill="none" fill-rule="evenodd">
        <g id="打样订单6" transform="translate(-991.000000, -186.000000)" fill-rule="nonzero">
            <g id="订单信息" transform="translate(307.840489, 79.000000)">
                <g id="已发货" transform="translate(684.743908, 107.231503)">
                    <path d="M6.70275408,8.49874176 C6.99388343,8.20761242 7.45532105,8.18049246 7.77778121,8.43122042 L7.77778121,8.43122042 L7.85425619,8.49874176 L11.3047699,11.9492554 C11.5958992,12.2403848 11.6230192,12.7018224 11.3623269,13.0363033 L11.3623269,13.0363033 L11.3047699,13.1007575 L7.85425619,16.5512712 C7.53627767,16.8692497 7.02073261,16.8692497 6.70275408,16.5512712 C6.41162474,16.2601419 6.38450478,15.7987042 6.64519705,15.4642233 L6.64519705,15.4642233 L6.70274786,15.3997753 L8.761,13.3392361 L0.814234949,13.3392414 C0.399136907,13.3392414 0.0565877198,13.0286229 0.00634404619,12.6271424 L-1.70530257e-13,12.5250065 C-1.70530257e-13,12.110614 0.311022283,11.7636915 0.734034976,11.7149825 L0.734034976,11.7149825 L0.814234949,11.7107715 L8.762,11.7102361 L6.70275408,9.65024387 C6.46985061,9.4173404 6.40591314,9.07543962 6.52312873,8.77674123 L6.57559993,8.66705172 L6.64519705,8.56319601 Z" id="形状结合" fill="#B8EFD0"></path>
                    <path d="M-6.82121026e-13,4.57799096 L0.0499024128,4.41230693 L2.46332518,0.769283212 C2.75456293,0.332388869 3.22702749,0.0540766273 3.74430045,0.00708509861 L3.90069018,-2.66453526e-12 L16.647819,-2.66453526e-12 C17.1726722,-2.66453526e-12 17.6663731,0.238597162 17.992035,0.642365763 L18.0845555,0.768378061 L20.5316963,4.41068572 L20.5826803,4.57799096 L20.5826803,18.8552596 C20.5826803,19.7558162 19.8853543,20.5005091 19.0037249,20.5764032 L18.8551682,20.5827717 L1.72751214,20.5827717 C0.826987992,20.5827717 0.0822660154,19.8854765 0.0063687551,19.0038212 L-6.82121026e-13,18.8552596 L-4.54747351e-13,15.079985 L2.027,15.079 L2.02709219,18.5544968 L18.5550922,18.5544968 L18.5550922,6.30449676 L2.02709219,6.30449676 L2.027,9.97 L-4.54747351e-13,9.9700061 L-6.82121026e-13,4.57799096 Z M16.6550922,2.02549676 L3.96709219,2.03649676 L2.32009219,4.27749676 L18.2700922,4.27749676 L16.6550922,2.02549676 Z" id="形状结合" fill="#2ECD74"></path>
                </g>
            </g>
        </g>
    </g>
</svg>