<?xml version="1.0" encoding="UTF-8"?>
<svg width="22px" height="22px" viewBox="0 0 22 22" version="1.1" xmlns="http://www.w3.org/2000/svg" xmlns:xlink="http://www.w3.org/1999/xlink">
    <title>工厂接单</title>
    <g id="PC" stroke="none" stroke-width="1" fill="none" fill-rule="evenodd">
        <g id="打样订单1" transform="translate(-762.000000, -186.000000)" fill-rule="nonzero">
            <g id="订单信息" transform="translate(307.840489, 79.000000)">
                <g id="工厂接单" transform="translate(455.620663, 107.000000)">
                    <path d="M4.02095018,21.7882334 C2.24603389,21.7882334 0.80204762,20.3442128 0.80204762,18.5692965 L0.80204762,3.5146823 C0.80204762,1.76984119 2.32338971,0.295779739 4.12418302,0.295779739 L14.8113951,0.295779739 C16.5863114,0.295779739 18.0303321,1.73976601 18.0303321,3.5146823 L18.0303321,11.356557 C17.7121685,11.3033233 17.3856087,11.2751751 17.0525452,11.2751751 C16.6527245,11.2751751 16.2621259,11.3153327 15.884397,11.3914153 L15.884397,3.5146823 C15.884397,2.92305503 15.4030568,2.44171477 14.8113951,2.44171477 L4.12418302,2.44171477 C3.5086057,2.44171477 2.94798268,2.95313017 2.94798268,3.5146823 L2.94798268,18.5692621 C2.94798268,19.1608893 3.42932291,19.642264 4.02095022,19.642264 L11.6837159,19.642264 C12.0700476,20.4818565 12.6476696,21.2158075 13.3604234,21.7882334 L4.02095018,21.7882334 L4.02095018,21.7882334 Z M13.7110365,9.97100049 C13.7110365,10.5611481 13.2282166,11.043968 12.638069,11.043968 L6.21072478,11.043968 C5.62057717,11.043968 5.13775725,10.5611481 5.13775725,9.97100049 L5.13775725,9.97100049 C5.13775725,9.38085288 5.62057714,8.89803296 6.21072478,8.89803296 L12.638069,8.89803296 C13.2282166,8.89803296 13.7110365,9.38085288 13.7110365,9.97100049 L13.7110365,9.97100049 Z M13.7110365,5.66488429 C13.7110365,6.2550319 13.2282166,6.73785182 12.638069,6.73785182 L6.21072478,6.73785182 C5.62057717,6.73785182 5.13775725,6.25503194 5.13775725,5.66488429 L5.13775725,5.66488429 C5.13775725,5.07473668 5.62057714,4.59191676 6.21072478,4.59191676 L12.638069,4.59191676 C13.2282166,4.59191676 13.7110365,5.07473668 13.7110365,5.66488429 L13.7110365,5.66488429 Z" id="提交" fill="#CFCFCF"></path>
                    <polygon id="路径" fill="#EEEEEE" points="15.8448822 19.2734851 13.4162408 19.2734851 13.4162408 17.9435149 15.8448822 17.9435149 15.8448822 16.8448438 13.4162408 16.8448438 13.4162408 15.5726983 14.8618607 15.5726983 13.4162408 12.9127577 15.1509846 12.9127577 16.6544293 15.5148735 18.1000492 12.9127577 19.7191434 12.9127577 18.2735236 15.5726983 19.7769683 15.5726983 19.7769683 16.8448438 17.4639764 16.8448438 17.4639764 17.9435149 19.7769683 17.9435149 19.7769683 19.2734851 17.4639764 19.2734851 17.4639764 21.0660538 15.8448822 21.0660538 15.8448822 19.2734851"></polygon>
                </g>
            </g>
        </g>
    </g>
</svg>