<?xml version="1.0" encoding="UTF-8"?>
<svg width="26px" height="24px" viewBox="0 0 26 24" version="1.1" xmlns="http://www.w3.org/2000/svg" xmlns:xlink="http://www.w3.org/1999/xlink">
    <title>完成</title>
    <g id="PC" stroke="none" stroke-width="1" fill="none" fill-rule="evenodd">
        <g id="打样订单10" transform="translate(-1343.000000, -186.000000)">
            <g id="订单信息" transform="translate(307.840489, 79.000000)">
                <g id="完成" transform="translate(1036.426426, 107.000000)">
                    <path d="M10.6983841,16.5924076 C10.706034,16.5924076 10.7140369,16.592643 10.7220398,16.592643 C11.052985,16.592643 11.3694542,16.456593 11.5973026,16.2161517 L17.9858852,10.2865613 C18.5233768,9.79249738 18.5588016,8.95324785 18.0648554,8.41575625 C17.825591,8.15530761 17.4991181,8.00360481 17.1456942,7.98865814 C16.7940355,7.97394686 16.4542636,8.09728629 16.1913435,8.33902217 L10.7039155,13.4573734 L7.88099598,10.833115 C7.34338669,10.3392865 6.50413715,10.3745936 6.01007327,10.9122029 C5.7706912,11.1726515 5.64723407,11.5106581 5.66206305,11.8640821 C5.67700972,12.2173883 5.82871252,12.5438612 6.08668965,12.7810072 L9.81064615,16.2495757 C10.0545005,16.4709512 10.369322,16.5924076 10.6983841,16.5924076" id="Fill-1" fill="#B8EFD0"></path>
                    <path d="M21.3151946,5.11846887 C19.5764381,2.58389056 16.954769,0.878205025 13.9330705,0.315527697 C10.9118428,-0.247385012 7.8517773,0.400500094 5.31708129,2.1392566 C2.78262066,3.8780131 1.07693513,6.49968225 0.51414011,9.52126303 C-0.0485372182,12.5429615 0.599230198,15.6027916 2.3379867,18.13737 C2.5358241,18.4255935 2.83405132,18.6194294 3.177707,18.6833353 C3.52159806,18.7470057 3.8693729,18.6733316 4.15747875,18.4754942 C4.4457023,18.2776568 4.63953823,17.9793119 4.70344406,17.6356562 C4.7672322,17.2921182 4.69344038,16.944108 4.49572068,16.6562375 C2.73730989,14.0908243 2.43413968,10.858931 3.68471682,8.01117878 C4.64448122,5.82566989 6.39783132,4.14458163 8.62182494,3.27779257 C10.8458186,2.41088581 13.2743579,2.46208109 15.4599845,3.42196319 C19.9716422,5.40316171 22.0303986,10.6854555 20.0492001,15.1972309 C19.0894357,17.3827397 17.3359679,19.0637103 15.1119743,19.9304994 C12.887863,20.7972884 10.4593236,20.7459755 8.27875771,19.7884472 L8.24192064,19.772559 C7.57720583,19.4953983 6.81151273,19.8112791 6.53470514,20.4757585 C6.25801524,21.1403557 6.57342525,21.9062841 7.23202017,22.1806202 C8.69161528,22.8120287 10.2380658,23.1329702 11.8285326,23.1347355 L11.829121,23.1347355 C14.1622135,23.1341471 16.4122167,22.4361259 18.3359824,21.1165822 C23.5680224,17.5272634 24.9043957,10.3505089 21.3151946,5.11846887" id="Fill-3" fill="#2ECD74"></path>
                </g>
            </g>
        </g>
    </g>
</svg>